<?xml version="1.0" encoding="UTF-8" standalone="no"?>
<!-- Created with Inkscape (http://www.inkscape.org/) -->

<svg
   xmlns:dc="http://purl.org/dc/elements/1.1/"
   xmlns:cc="http://creativecommons.org/ns#"
   xmlns:rdf="http://www.w3.org/1999/02/22-rdf-syntax-ns#"
   xmlns:svg="http://www.w3.org/2000/svg"
   xmlns="http://www.w3.org/2000/svg"
   xmlns:xlink="http://www.w3.org/1999/xlink"
   xmlns:sodipodi="http://sodipodi.sourceforge.net/DTD/sodipodi-0.dtd"
   xmlns:inkscape="http://www.inkscape.org/namespaces/inkscape"
   width="18"
   height="18"
   id="svg2"
   version="1.1"
   inkscape:version="0.47 r22583"
   sodipodi:docname="theme.svg">
  <defs
     id="defs4">
    <linearGradient
       id="linearGradient3668">
      <stop
         style="stop-color:#7f7f7f;stop-opacity:1;"
         offset="0"
         id="stop3670" />
      <stop
         style="stop-color:#bdbdbd;stop-opacity:1;"
         offset="1"
         id="stop3672" />
    </linearGradient>
    <inkscape:perspective
       sodipodi:type="inkscape:persp3d"
       inkscape:vp_x="0 : 526.18109 : 1"
       inkscape:vp_y="0 : 1000 : 0"
       inkscape:vp_z="744.09448 : 526.18109 : 1"
       inkscape:persp3d-origin="372.04724 : 350.78739 : 1"
       id="perspective10" />
    <inkscape:perspective
       id="perspective3608"
       inkscape:persp3d-origin="0.5 : 0.33333333 : 1"
       inkscape:vp_z="1 : 0.5 : 1"
       inkscape:vp_y="0 : 1000 : 0"
       inkscape:vp_x="0 : 0.5 : 1"
       sodipodi:type="inkscape:persp3d" />
    <inkscape:perspective
       id="perspective3630"
       inkscape:persp3d-origin="0.5 : 0.33333333 : 1"
       inkscape:vp_z="1 : 0.5 : 1"
       inkscape:vp_y="0 : 1000 : 0"
       inkscape:vp_x="0 : 0.5 : 1"
       sodipodi:type="inkscape:persp3d" />
    <linearGradient
       inkscape:collect="always"
       xlink:href="#linearGradient3668"
       id="linearGradient3674"
       x1="-69.75"
       y1="16"
       x2="-69.75"
       y2="-2"
       gradientUnits="userSpaceOnUse"
       gradientTransform="translate(191.80357,615.59434)" />
    <inkscape:perspective
       id="perspective3686"
       inkscape:persp3d-origin="0.5 : 0.33333333 : 1"
       inkscape:vp_z="1 : 0.5 : 1"
       inkscape:vp_y="0 : 1000 : 0"
       inkscape:vp_x="0 : 0.5 : 1"
       sodipodi:type="inkscape:persp3d" />
  </defs>
  <sodipodi:namedview
     id="base"
     pagecolor="#ffffff"
     bordercolor="#666666"
     borderopacity="1.0"
     inkscape:pageopacity="0.0"
     inkscape:pageshadow="2"
     inkscape:zoom="8"
     inkscape:cx="-16.6875"
     inkscape:cy="9.4285979"
     inkscape:document-units="px"
     inkscape:current-layer="layer1"
     showgrid="false"
     inkscape:window-width="1440"
     inkscape:window-height="801"
     inkscape:window-x="0"
     inkscape:window-y="25"
     inkscape:window-maximized="1" />
  <metadata
     id="metadata7">
    <rdf:RDF>
      <cc:Work
         rdf:about="">
        <dc:format>image/svg+xml</dc:format>
        <dc:type
           rdf:resource="http://purl.org/dc/dcmitype/StillImage" />
        <dc:title></dc:title>
      </cc:Work>
    </rdf:RDF>
  </metadata>
  <g
     inkscape:label="Calque 1"
     inkscape:groupmode="layer"
     id="layer1"
     transform="translate(-191.42857,-615.21935)">
    <path
       style="fill:#000000;fill-opacity:0.44230771;stroke:none"
       d="M 9 0 C 4.0294373 0 0 4.0294372 0 9 C 0 13.970563 4.0294373 18 9 18 C 13.970563 18 18 13.970563 18 9 C 18 4.0294372 13.970563 0 9 0 z M 6.75 1.90625 C 9.54628 1.90625 11.78125 4.16841 11.78125 6.875 C 11.78125 7.9054973 11.42906 8.8551068 10.875 9.65625 L 15.03125 14.34375 L 13.53125 15.65625 L 9.46875 11.0625 C 8.6867224 11.564566 7.7574166 11.84375 6.75 11.84375 C 3.95371 11.84375 1.71875 9.58159 1.71875 6.875 C 1.71875 4.16841 3.95371 1.90625 6.75 1.90625 z M 6.75 3.84375 C 5.12801 3.84375 3.78125 5.16331 3.78125 6.875 C 3.78125 8.58669 5.12801 9.90625 6.75 9.90625 C 8.37199 9.90625 9.71875 8.58669 9.71875 6.875 C 9.71875 5.16331 8.37199 3.84375 6.75 3.84375 z "
       transform="translate(191.42857,615.21935)"
       id="path2816"
       inkscape:export-filename="/home/brice/Projets/iuris/app/assets/images/search.png"
       inkscape:export-xdpi="100"
       inkscape:export-ydpi="100" />
    <path
       style="font-size:medium;font-style:normal;font-variant:normal;font-weight:normal;font-stretch:normal;text-indent:0;text-align:start;text-decoration:none;line-height:normal;letter-spacing:normal;word-spacing:normal;text-transform:none;direction:ltr;block-progression:tb;writing-mode:lr-tb;text-anchor:start;color:#000000;fill:#000000;fill-opacity:1;stroke:none;stroke-width:2.82704568;marker:none;visibility:visible;display:inline;overflow:visible;enable-background:accumulate;font-family:Bitstream Charter;-inkscape-font-specification:Bitstream Charter"
       d="m 154.42857,607.96935 c -2.79629,0 -5.03125,2.26216 -5.03125,4.96875 0,2.70659 2.23496,4.96875 5.03125,4.96875 1.00742,0 1.93672,-0.27918 2.71875,-0.78125 l 4.0625,4.59375 1.5,-1.3125 -4.15625,-4.6875 c 0.55406,-0.80114 0.90625,-1.75075 0.90625,-2.78125 0,-2.70659 -2.23497,-4.96875 -5.03125,-4.96875 z m 0,1.9375 c 1.62199,0 2.96875,1.31956 2.96875,3.03125 0,1.71169 -1.34676,3.03125 -2.96875,3.03125 -1.62199,0 -2.96875,-1.31956 -2.96875,-3.03125 0,-1.71169 1.34676,-3.03125 2.96875,-3.03125 z"
       id="path3590-8" />
    <path
       sodipodi:type="arc"
       style="fill:#878787;fill-opacity:0.44230772;stroke:none"
       id="path2816-4"
       sodipodi:cx="248.57143"
       sodipodi:cy="569.50507"
       sodipodi:rx="57.142857"
       sodipodi:ry="65.714287"
       d="m 305.71428,569.50507 a 57.142857,65.714287 0 1 1 -114.28571,0 57.142857,65.714287 0 1 1 114.28571,0 z"
       transform="matrix(0.1575,0,0,0.13695652,120.77857,553.09692)" />
    <rect
       style="fill:url(#linearGradient3674);fill-opacity:1;stroke:none"
       id="rect3666"
       width="18"
       height="18"
       x="122.05357"
       y="613.59436"
       rx="2"
       ry="2"
       inkscape:export-filename="/home/brice/Projets/iuris/app/assets/images/search.png"
       inkscape:export-xdpi="90"
       inkscape:export-ydpi="90" />
    <g
       id="g3712"
       transform="translate(3.6083985e-6,-0.43748965)">
      <path
         sodipodi:nodetypes="cccccccc"
         id="path3676"
         d="m 124.86607,619.53185 0,6 5.75,0 0,3.625 6.625,-6.5625 -6.625,-6.5625 0,3.5 -5.75,0 z"
         style="fill:#292929;fill-opacity:1;stroke:none" />
      <path
         sodipodi:nodetypes="cccccccc"
         id="path3676-1"
         d="m 124.86607,620.40685 0,6 5.75,0 0,3.625 6.625,-6.5625 -6.625,-6.5625 0,3.5 -5.75,0 z"
         style="fill:#ffffff;fill-opacity:1;stroke:none" />
    </g>
  </g>
</svg>
