<?xml version="1.0" encoding="UTF-8" standalone="no"?>
<!-- Created with Inkscape (http://www.inkscape.org/) -->

<svg
   xmlns:dc="http://purl.org/dc/elements/1.1/"
   xmlns:cc="http://creativecommons.org/ns#"
   xmlns:rdf="http://www.w3.org/1999/02/22-rdf-syntax-ns#"
   xmlns:svg="http://www.w3.org/2000/svg"
   xmlns="http://www.w3.org/2000/svg"
   xmlns:xlink="http://www.w3.org/1999/xlink"
   xmlns:sodipodi="http://sodipodi.sourceforge.net/DTD/sodipodi-0.dtd"
   xmlns:inkscape="http://www.inkscape.org/namespaces/inkscape"
   width="18"
   height="18"
   id="svg2"
   version="1.1"
   inkscape:version="0.47 r22583"
   sodipodi:docname="theme.svg">
  <defs
     id="defs4">
    <linearGradient
       inkscape:collect="always"
       id="linearGradient3643">
      <stop
         style="stop-color:#a2a6a5;stop-opacity:1;"
         offset="0"
         id="stop3645" />
      <stop
         style="stop-color:#a2a6a5;stop-opacity:0;"
         offset="1"
         id="stop3647" />
    </linearGradient>
    <linearGradient
       inkscape:collect="always"
       id="linearGradient3635">
      <stop
         style="stop-color:#a2a6a5;stop-opacity:1;"
         offset="0"
         id="stop3637" />
      <stop
         style="stop-color:#a2a6a5;stop-opacity:0;"
         offset="1"
         id="stop3639" />
    </linearGradient>
    <linearGradient
       id="linearGradient3686">
      <stop
         style="stop-color:#000000;stop-opacity:0.17777778;"
         offset="0"
         id="stop3688" />
      <stop
         id="stop3690"
         offset="1"
         style="stop-color:#000000;stop-opacity:0.51111114;" />
    </linearGradient>
    <linearGradient
       id="linearGradient3612">
      <stop
         style="stop-color:#000000;stop-opacity:1;"
         offset="0"
         id="stop3614" />
      <stop
         style="stop-color:#000000;stop-opacity:0;"
         offset="1"
         id="stop3616" />
    </linearGradient>
    <linearGradient
       id="linearGradient3620">
      <stop
         id="stop3628"
         offset="0"
         style="stop-color:#000000;stop-opacity:0;" />
      <stop
         style="stop-color:#000000;stop-opacity:0.40000001;"
         offset="1"
         id="stop3624" />
    </linearGradient>
    <linearGradient
       id="linearGradient3668">
      <stop
         style="stop-color:#7f7f7f;stop-opacity:1;"
         offset="0"
         id="stop3670" />
      <stop
         style="stop-color:#bdbdbd;stop-opacity:1;"
         offset="1"
         id="stop3672" />
    </linearGradient>
    <linearGradient
       inkscape:collect="always"
       xlink:href="#linearGradient3668"
       id="linearGradient3674"
       x1="-69.75"
       y1="16"
       x2="-69.75"
       y2="-2"
       gradientUnits="userSpaceOnUse"
       gradientTransform="translate(191.80357,615.59434)" />
    <radialGradient
       inkscape:collect="always"
       xlink:href="#linearGradient3620"
       id="radialGradient3682"
       gradientUnits="userSpaceOnUse"
       gradientTransform="matrix(1.415388,-0.07622193,0.06372927,1.5650567,-128.14016,-294.78859)"
       cx="224.7619"
       cy="545.69556"
       fx="224.7619"
       fy="545.69556"
       r="57.142857" />
    <linearGradient
       inkscape:collect="always"
       xlink:href="#linearGradient3612"
       id="linearGradient3618"
       x1="-33.25"
       y1="40.1875"
       x2="-13.125"
       y2="40.1875"
       gradientUnits="userSpaceOnUse"
       gradientTransform="matrix(2.3850932,0,0,2.8029197,221.23292,571.827)" />
    <filter
       inkscape:collect="always"
       id="filter3663">
      <feGaussianBlur
         inkscape:collect="always"
         stdDeviation="1.56672"
         id="feGaussianBlur3665" />
    </filter>
    <filter
       color-interpolation-filters="sRGB"
       inkscape:collect="always"
       id="filter3663-8">
      <feGaussianBlur
         inkscape:collect="always"
         stdDeviation="1.56672"
         id="feGaussianBlur3665-3" />
    </filter>
    <radialGradient
       inkscape:collect="always"
       xlink:href="#linearGradient3686"
       id="radialGradient3692"
       cx="61.927063"
       cy="749.44641"
       fx="61.927063"
       fy="749.44641"
       r="17.324004"
       gradientTransform="matrix(-0.09429848,2.1816258,-1.9280433,-0.08937296,1511.2439,707.01885)"
       gradientUnits="userSpaceOnUse" />
    <linearGradient
       inkscape:collect="always"
       xlink:href="#linearGradient3635"
       id="linearGradient3641"
       x1="-306.5"
       y1="99"
       x2="-241"
       y2="99"
       gradientUnits="userSpaceOnUse"
       gradientTransform="matrix(0.15599549,0,0,0.16027781,67.663192,683.88566)" />
    <linearGradient
       inkscape:collect="always"
       xlink:href="#linearGradient3643"
       id="linearGradient3649"
       x1="-265"
       y1="100.25"
       x2="-252.5"
       y2="100.25"
       gradientUnits="userSpaceOnUse"
       gradientTransform="matrix(0.15114291,0,0,0.15544041,66.178302,684.5121)" />
    <linearGradient
       inkscape:collect="always"
       xlink:href="#linearGradient3643"
       id="linearGradient3657"
       x1="-305"
       y1="48.5"
       x2="-241.5"
       y2="48.5"
       gradientUnits="userSpaceOnUse"
       gradientTransform="matrix(0.15599549,0,0,0.16027781,67.663192,684.27233)" />
  </defs>
  <sodipodi:namedview
     id="base"
     pagecolor="#ffffff"
     bordercolor="#666666"
     borderopacity="1.0"
     inkscape:pageopacity="0.0"
     inkscape:pageshadow="2"
     inkscape:zoom="8"
     inkscape:cx="-172.33287"
     inkscape:cy="-66.33758"
     inkscape:document-units="px"
     inkscape:current-layer="layer1"
     showgrid="false"
     inkscape:window-width="1440"
     inkscape:window-height="801"
     inkscape:window-x="0"
     inkscape:window-y="25"
     inkscape:window-maximized="1"
     showguides="true"
     inkscape:guide-bbox="true" />
  <metadata
     id="metadata7">
    <rdf:RDF>
      <cc:Work
         rdf:about="">
        <dc:format>image/svg+xml</dc:format>
        <dc:type
           rdf:resource="http://purl.org/dc/dcmitype/StillImage" />
        <dc:title></dc:title>
      </cc:Work>
    </rdf:RDF>
  </metadata>
  <g
     inkscape:label="Calque 1"
     inkscape:groupmode="layer"
     id="layer1"
     transform="translate(-191.42857,-615.21935)">
    <path
       style="fill:#000000;fill-opacity:0.44230771;stroke:none"
       d="M 9 0 C 4.0294373 0 0 4.0294372 0 9 C 0 13.970563 4.0294373 18 9 18 C 13.970563 18 18 13.970563 18 9 C 18 4.0294372 13.970563 0 9 0 z M 6.75 1.90625 C 9.54628 1.90625 11.78125 4.16841 11.78125 6.875 C 11.78125 7.9054973 11.42906 8.8551068 10.875 9.65625 L 15.03125 14.34375 L 13.53125 15.65625 L 9.46875 11.0625 C 8.6867224 11.564566 7.7574166 11.84375 6.75 11.84375 C 3.95371 11.84375 1.71875 9.58159 1.71875 6.875 C 1.71875 4.16841 3.95371 1.90625 6.75 1.90625 z M 6.75 3.84375 C 5.12801 3.84375 3.78125 5.16331 3.78125 6.875 C 3.78125 8.58669 5.12801 9.90625 6.75 9.90625 C 8.37199 9.90625 9.71875 8.58669 9.71875 6.875 C 9.71875 5.16331 8.37199 3.84375 6.75 3.84375 z "
       transform="translate(191.42857,615.21935)"
       id="path2816"
       inkscape:export-filename="/home/brice/Projets/iuris/app/assets/images/search.png"
       inkscape:export-xdpi="100"
       inkscape:export-ydpi="100" />
    <path
       style="font-size:medium;font-style:normal;font-variant:normal;font-weight:normal;font-stretch:normal;text-indent:0;text-align:start;text-decoration:none;line-height:normal;letter-spacing:normal;word-spacing:normal;text-transform:none;direction:ltr;block-progression:tb;writing-mode:lr-tb;text-anchor:start;color:#000000;fill:#000000;fill-opacity:1;stroke:none;stroke-width:2.82704568;marker:none;visibility:visible;display:inline;overflow:visible;enable-background:accumulate;font-family:Bitstream Charter;-inkscape-font-specification:Bitstream Charter"
       d="m 154.42857,607.96935 c -2.79629,0 -5.03125,2.26216 -5.03125,4.96875 0,2.70659 2.23496,4.96875 5.03125,4.96875 1.00742,0 1.93672,-0.27918 2.71875,-0.78125 l 4.0625,4.59375 1.5,-1.3125 -4.15625,-4.6875 c 0.55406,-0.80114 0.90625,-1.75075 0.90625,-2.78125 0,-2.70659 -2.23497,-4.96875 -5.03125,-4.96875 z m 0,1.9375 c 1.62199,0 2.96875,1.31956 2.96875,3.03125 0,1.71169 -1.34676,3.03125 -2.96875,3.03125 -1.62199,0 -2.96875,-1.31956 -2.96875,-3.03125 0,-1.71169 1.34676,-3.03125 2.96875,-3.03125 z"
       id="path3590-8" />
    <path
       sodipodi:type="arc"
       style="fill:#878787;fill-opacity:0.44230772;stroke:none"
       id="path2816-4"
       sodipodi:cx="248.57143"
       sodipodi:cy="569.50507"
       sodipodi:rx="57.142857"
       sodipodi:ry="65.714287"
       d="m 305.71428,569.50507 c 0,36.29299 -25.58373,65.71428 -57.14285,65.71428 -31.55913,0 -57.14286,-29.42129 -57.14286,-65.71428 0,-36.293 25.58373,-65.71429 57.14286,-65.71429 31.55912,0 57.14285,29.42129 57.14285,65.71429 z"
       transform="matrix(0.1575,0,0,0.13695652,120.77857,553.09692)" />
    <rect
       style="fill:url(#linearGradient3674);fill-opacity:1;stroke:none"
       id="rect3666"
       width="18"
       height="18"
       x="122.05357"
       y="613.59436"
       rx="2"
       ry="2"
       inkscape:export-filename="/home/brice/Projets/iuris/app/assets/images/search.png"
       inkscape:export-xdpi="90"
       inkscape:export-ydpi="90" />
    <g
       id="g3712"
       transform="translate(3.6083985e-6,-0.43748965)">
      <path
         sodipodi:nodetypes="cccccccc"
         id="path3676"
         d="m 124.86607,619.53185 0,6 5.75,0 0,3.625 6.625,-6.5625 -6.625,-6.5625 0,3.5 -5.75,0 z"
         style="fill:#292929;fill-opacity:1;stroke:none" />
      <path
         sodipodi:nodetypes="cccccccc"
         id="path3676-1"
         d="m 124.86607,620.40685 0,6 5.75,0 0,3.625 6.625,-6.5625 -6.625,-6.5625 0,3.5 -5.75,0 z"
         style="fill:#ffffff;fill-opacity:1;stroke:none" />
    </g>
    <g
       id="search"
       inkscape:export-filename="/home/brice/Projets/iuris/app/assets/images/search.png"
       inkscape:export-xdpi="90"
       inkscape:export-ydpi="90"
       inkscape:label="#g3677">
      <path
         transform="matrix(0.1575,0,0,0.13695652,89.15357,567.72192)"
         d="m 305.71428,569.50507 c 0,36.29299 -25.58373,65.71428 -57.14285,65.71428 -31.55913,0 -57.14286,-29.42129 -57.14286,-65.71428 0,-36.293 25.58373,-65.71429 57.14286,-65.71429 31.55912,0 57.14285,29.42129 57.14285,65.71429 z"
         sodipodi:ry="65.714287"
         sodipodi:rx="57.142857"
         sodipodi:cy="569.50507"
         sodipodi:cx="248.57143"
         id="path2816-4-6"
         style="fill:url(#radialGradient3682);fill-opacity:1;stroke:none"
         sodipodi:type="arc" />
      <path
         style="fill:#ffffff;fill-opacity:1;stroke:none"
         d="m 123.30357,643.2446 0,4.84849 4.64646,0 0,2.92929 5.35354,-5.30303 -5.35354,-5.30303 0,2.82828 -4.64646,0 z"
         id="path3676-1-8"
         sodipodi:nodetypes="cccccccc" />
      <path
         id="rect3652"
         d="m 119.30357,636.71935 0,9 c 0,-4.97056 4.02944,-9 9,-9 l -9,0 z m 9,0 c 4.97056,0 9,4.02944 9,9 l 0,-9 -9,0 z m 9,9 c 0,4.97056 -4.02944,9 -9,9 l 9,0 0,-9 z m -9,9 c -4.97056,0 -9,-4.02944 -9,-9 l 0,9 9,0 z"
         style="fill:#ffffff;fill-opacity:1;stroke:none" />
    </g>
    <rect
       style="fill:url(#linearGradient3618);fill-opacity:1;stroke:none"
       id="rect2838"
       width="48"
       height="48"
       x="141.92857"
       y="660.46936" />
    <path
       style="fill:url(#linearGradient3641);fill-opacity:1;stroke:#000000;stroke-width:0.99999994px;stroke-linecap:butt;stroke-linejoin:miter;stroke-opacity:1"
       d="m 19.928571,695.18524 1.998012,9.45639 5.927828,0 2.135871,-9.8571 -10.061711,0 0,0.40071 z"
       id="path2853"
       sodipodi:nodetypes="cccccc"
       inkscape:export-filename="/home/brice/Projets/iuris/app/assets/images/remove.png"
       inkscape:export-xdpi="90"
       inkscape:export-ydpi="90" />
    <path
       style="fill:url(#linearGradient3657);fill-opacity:1;stroke:#000000;stroke-width:0.99999994px;stroke-linecap:butt;stroke-linejoin:miter;stroke-opacity:1"
       d="m 20.16257,691.56497 9.749716,2.885 0,-1.20209 -2.261933,-1.0418 -0.311995,-1.60277 -2.495931,-0.96168 -1.247961,1.04181 -2.963919,-0.48083 -0.467977,1.36236 z"
       id="path2855"
       sodipodi:nodetypes="ccccccccc"
       inkscape:export-filename="/home/brice/Projets/iuris/app/assets/images/remove.png"
       inkscape:export-xdpi="90"
       inkscape:export-ydpi="90" />
    <path
       style="fill:none;stroke:#000000;stroke-width:0.99999994px;stroke-linecap:butt;stroke-linejoin:miter;stroke-opacity:1"
       d="m 23.144613,696.70788 0.650969,6.26486"
       id="path2857"
       sodipodi:nodetypes="cc"
       inkscape:export-filename="/home/brice/Projets/iuris/app/assets/images/remove.png"
       inkscape:export-xdpi="90"
       inkscape:export-ydpi="90" />
    <path
       style="fill:none;stroke:#000000;stroke-width:0.99999994px;stroke-linecap:butt;stroke-linejoin:miter;stroke-opacity:1"
       d="m 26.777625,696.70788 -0.825065,6.00708"
       id="path2859"
       sodipodi:nodetypes="cc"
       inkscape:export-filename="/home/brice/Projets/iuris/app/assets/images/remove.png"
       inkscape:export-xdpi="90"
       inkscape:export-ydpi="90" />
  </g>
</svg>
